<svg width="12" height="16" viewBox="0 0 12 16" fill="none" xmlns="http://www.w3.org/2000/svg">
<path d="M3.5 6.00029C3.5 5.20875 2.44722 4.99895 2.16791 5.73957C1.49228 7.53109 1 9.13374 1 10.0002C1 12.7616 3.23858 15.0002 6 15.0002C8.76142 15.0002 11 12.7616 11 10.0002C11 9.06931 10.4318 7.28866 9.67844 5.33698C8.70257 2.80879 8.21464 1.54469 7.61233 1.4766C7.4196 1.45482 7.20934 1.49399 7.03739 1.58371C6.5 1.86413 6.5 3.24285 6.5 6.00029C6.5 6.82872 5.82843 7.50029 5 7.50029C4.17157 7.50029 3.5 6.82872 3.5 6.00029Z" stroke="#e3e3e3"/>
</svg>
