<?xml version="1.0" encoding="utf-8"?>
<!-- Generator: Adobe Illustrator 27.0.1, SVG Export Plug-In . SVG Version: 6.00 Build 0)  -->
<svg version="1.1" id="Layer_1" xmlns="http://www.w3.org/2000/svg" xmlns:xlink="http://www.w3.org/1999/xlink" x="0px" y="0px"
	 viewBox="0 0 317.88 396" style="enable-background:new 0 0 317.88 396;" xml:space="preserve">
<path d="M156.33,19c9.02,9.04,18.06,18.06,27.05,27.13c5.29,5.34,5.23,7.98-0.09,13.34c-7.61,7.66-15.22,15.3-22.84,22.95
	c-0.94,0.94-1.86,1.91-2.87,2.76c-3.06,2.57-6.42,3.03-9.35,0.15c-2.95-2.91-2.66-6.3,0.19-9.26c4.61-4.78,9.28-9.51,14.01-14.16
	c2.95-2.9,6.07-5.63,9.76-9.03c-7.57-7.39-14.58-14.14-21.5-20.99c-5.33-5.29-5.47-6.38-2.35-12.88C151.01,19,153.67,19,156.33,19z"
	/>
<path d="M196.22,19c8.97,9.11,17.95,18.21,26.91,27.33c5,5.08,5.03,7.89-0.04,13.02c-7.95,8.05-15.96,16.04-23.95,24.04
	c-0.59,0.59-1.2,1.15-1.84,1.68c-3.25,2.65-6.7,3.3-9.69-0.08c-2.76-3.12-2.05-6.51,0.71-9.34c5.81-5.95,11.69-11.83,17.61-17.67
	c1.65-1.63,3.54-3.02,5.47-4.64c-7.65-7.79-14.7-14.97-21.75-22.15c-4.51-4.6-4.74-6.65-1.42-12.19C190.9,19,193.56,19,196.22,19z"
	/>
<path d="M84.4,174.6c0.44-17.16,0.84-33.58,1.28-50c0.6-22.63,1.21-45.27,1.86-67.9c0.27-9.35,9.63-20.88,18.29-22.63
	c10.46-2.12,21.86,3.78,26.07,13.83c1.05,2.51,1.46,5.47,1.47,8.22c0.12,21.15,0.06,42.3,0.06,64.11
	c15.44-6.24,28.74-6.46,36.49,11.31c8.96-4.43,18.26-5.79,27.17-0.13c9.13,5.81,10.14,15.7,11.05,25.6
	c14.94-12.34,37.02-0.81,36.96,20.06c-0.08,29.82,1.05,59.7-0.54,89.44c-0.63,11.76-6.14,23.72-11.39,34.63
	c-4.25,8.82-6.8,17.21-6.14,26.95c0.63,9.29,0.53,18.67-3.83,27.34c-7.24,14.39-19.08,21.92-34.96,22.44
	c-14.27,0.46-28.58,0.24-42.86,0.07c-22.19-0.27-38.78-17.14-38.98-39.37c-0.03-3.5-0.47-7.06,0.03-10.48
	c1.19-8.06-2.19-13.43-8.03-18.8c-16.21-14.89-30.84-31.36-40.44-51.4c-4.69-9.78-8.01-20.33-10.9-30.82
	c-4.66-16.9-8.4-34.06-12.64-51.08c-1.7-6.8,0.21-12.47,4.91-17.31c10.18-10.48,23.8-10.35,33.4,0.54
	C76.74,163.81,80.13,168.94,84.4,174.6z"/>
</svg>
