<?xml version="1.0" encoding="utf-8"?>
<!-- Generator: Adobe Illustrator 27.0.1, SVG Export Plug-In . SVG Version: 6.00 Build 0)  -->
<svg version="1.1" id="Layer_1" xmlns="http://www.w3.org/2000/svg" xmlns:xlink="http://www.w3.org/1999/xlink" x="0px" y="0px"
	 viewBox="0 0 317.88 396" style="enable-background:new 0 0 317.88 396;" xml:space="preserve">
<style type="text/css">
	.st0{fill:#999999;}
</style>
<g>
	<path class="st0" d="M156.33,19c9.02,9.04,18.06,18.06,27.05,27.13c5.29,5.34,5.23,7.98-0.09,13.34
		c-7.61,7.66-15.22,15.3-22.84,22.95c-0.94,0.94-1.86,1.91-2.87,2.76c-3.06,2.57-6.42,3.03-9.35,0.15c-2.95-2.91-2.66-6.3,0.19-9.26
		c4.61-4.78,9.28-9.51,14.01-14.16c2.95-2.9,6.07-5.63,9.76-9.03c-7.57-7.39-14.58-14.14-21.5-20.99
		c-5.33-5.29-5.47-6.38-2.35-12.88C151.01,19,153.67,19,156.33,19z"/>
	<path class="st0" d="M196.22,19c8.97,9.11,17.95,18.21,26.91,27.33c5,5.08,5.03,7.89-0.04,13.02
		c-7.95,8.05-15.96,16.04-23.95,24.04c-0.59,0.59-1.2,1.15-1.84,1.68c-3.25,2.65-6.7,3.3-9.69-0.08c-2.76-3.12-2.05-6.51,0.71-9.34
		c5.81-5.95,11.69-11.83,17.61-17.67c1.65-1.63,3.54-3.02,5.47-4.64c-7.65-7.79-14.7-14.97-21.75-22.15
		c-4.51-4.6-4.74-6.65-1.42-12.19C190.9,19,193.56,19,196.22,19z"/>
	<path class="st0" d="M84.4,174.6c0.44-17.16,0.84-33.58,1.28-50c0.6-22.63,1.21-45.27,1.86-67.9c0.27-9.35,9.63-20.88,18.29-22.63
		c10.46-2.12,21.86,3.78,26.07,13.83c1.05,2.51,1.46,5.47,1.47,8.22c0.12,21.15,0.06,42.3,0.06,64.11
		c15.44-6.24,28.74-6.46,36.49,11.31c8.96-4.43,18.26-5.79,27.17-0.13c9.13,5.81,10.14,15.7,11.05,25.6
		c14.94-12.34,37.02-0.81,36.96,20.06c-0.08,29.82,1.05,59.7-0.54,89.44c-0.63,11.76-6.14,23.72-11.39,34.63
		c-4.25,8.82-6.8,17.21-6.14,26.95c0.63,9.29,0.53,18.67-3.83,27.34c-7.24,14.39-19.08,21.92-34.96,22.44
		c-14.27,0.46-28.58,0.24-42.86,0.07c-22.19-0.27-38.78-17.14-38.98-39.37c-0.03-3.5-0.47-7.06,0.03-10.48
		c1.19-8.06-2.19-13.43-8.03-18.8c-16.21-14.89-30.84-31.36-40.44-51.4c-4.69-9.78-8.01-20.33-10.9-30.82
		c-4.66-16.9-8.4-34.06-12.64-51.08c-1.7-6.8,0.21-12.47,4.91-17.31c10.18-10.48,23.8-10.35,33.4,0.54
		C76.74,163.81,80.13,168.94,84.4,174.6z M121.17,107.89c-0.25,0-0.5,0-0.75,0c0-17,0.06-33.99-0.08-50.99
		c-0.02-2.01-0.63-4.3-1.73-5.96c-2.47-3.72-6.32-4.77-10.54-3.76c-3.51,0.84-7.39,6.88-7.51,11.47
		c-1.03,37.45-2.03,74.9-3.03,112.36c-0.4,14.82-0.74,29.63-1.15,44.45c-0.1,3.51-0.93,6.69-5,7.6c-4.08,0.91-6.71-1.16-8.49-4.51
		c-0.84-1.59-1.48-3.35-1.83-5.12c-0.95-4.88-1.76-9.8-2.52-14.72c-1.95-12.63-8.55-22.86-16.61-32.29
		c-3.53-4.13-7.53-2.19-11.25-0.18c-3.53,1.91-4.4,4.64-3.25,8.77c3.33,11.97,6.26,24.06,9.19,36.14
		c3.83,15.79,7.13,31.78,15.47,45.98c11.14,18.98,26.03,34.84,42.22,49.52c3.5,3.17,5.24,6.49,5.05,11.26
		c-0.27,6.99-0.2,14,0.04,20.99c0.5,14.74,10.82,25.5,25.44,25.92c14.45,0.41,28.92,0.36,43.37,0.05
		c13.25-0.28,23.36-9.25,25.25-22.41c0.85-5.89,0.92-11.99,0.52-17.94c-0.65-9.88,1.78-18.33,6.51-27.29
		c5.52-10.47,10.41-22.49,11.07-34.09c1.58-27.74,0.53-55.63,0.47-83.46c-0.01-2.47-0.27-5-0.87-7.39c-1.15-4.6-4.53-6.86-9.06-7.21
		c-4.59-0.35-5.73,3.47-6.78,6.69c-1.38,4.22-2.21,8.62-3.21,12.97c-0.81,3.53-2.37,6.32-6.43,6.43c-3.94,0.11-6.08-1.98-6.67-5.9
		c-0.49-3.28-1.38-6.49-1.8-9.77c-1.09-8.56-1.94-17.14-3.05-25.7c-0.82-6.26-4.9-9.24-11.61-8.78c-5.82,0.4-8.32,3.44-8.25,10.01
		c0.04,4.49,0.64,9.09-0.15,13.43c-0.38,2.11-3.22,5.01-5.21,5.24c-2.06,0.23-4.65-2.1-6.57-3.81c-0.9-0.81-0.83-2.78-1.07-4.25
		c-1.32-8.18-2.5-16.39-3.94-24.55c-1-5.69-3.97-8.07-9.07-7.78c-5.54,0.31-11.33,4.64-11.82,8.94c-0.76,6.76-1.45,13.53-2.14,20.3
		c-0.53,5.16-3.18,8.2-7.2,7.86c-4.91-0.42-6.03-3.76-6.01-8.08C121.21,141.51,121.17,124.7,121.17,107.89z"/>
</g>
</svg>
