<?xml version="1.0" encoding="utf-8"?>
<!-- Generator: Adobe Illustrator 27.0.1, SVG Export Plug-In . SVG Version: 6.00 Build 0)  -->
<svg version="1.1" id="Layer_1" xmlns="http://www.w3.org/2000/svg" xmlns:xlink="http://www.w3.org/1999/xlink" x="0px" y="0px"
	 viewBox="0 0 24 24" style="enable-background:new 0 0 24 24;" xml:space="preserve">
<style type="text/css">
	.st0{stroke:#000000;}
	.st1{stroke:#FFFFFF;}
</style>
<path class="st0" d="M18,13.5h0.5c0.94,0,1.41,0,1.71-0.29s0.29-0.76,0.29-1.71v-1c0-1.89,0-2.83-0.59-3.41
	C19.33,6.5,18.39,6.5,16.5,6.5h-9c-1.89,0-2.83,0-3.41,0.59C3.5,7.67,3.5,8.61,3.5,10.5v2c0,0.47,0,0.71,0.15,0.85
	C3.79,13.5,4.03,13.5,4.5,13.5H6"/>
<path class="st1" d="M6.5,19.81V11.5c0-0.94,0-1.41,0.29-1.71C7.09,9.5,7.56,9.5,8.5,9.5h7c0.94,0,1.41,0,1.71,0.29
	c0.29,0.29,0.29,0.76,0.29,1.71v8.31c0,0.32,0,0.47-0.1,0.55c-0.1,0.07-0.25,0.02-0.55-0.08l-2.17-0.72
	c-0.09-0.03-0.13-0.04-0.17-0.04s-0.09,0.02-0.17,0.05l-2.14,0.86c-0.09,0.04-0.14,0.06-0.19,0.06s-0.09-0.02-0.19-0.06l-2.14-0.86
	c-0.08-0.03-0.13-0.05-0.17-0.05s-0.09,0.01-0.17,0.04l-2.17,0.72c-0.3,0.1-0.45,0.15-0.55,0.08C6.5,20.28,6.5,20.12,6.5,19.81z"/>
<path class="st1" d="M9.5,13.5h4"/>
<path class="st1" d="M9.5,16.5h5"/>
<path class="st0" d="M17.5,6.5V6.1c0-1.7,0-2.55-0.53-3.07C16.45,2.5,15.6,2.5,13.9,2.5h-3.8c-1.7,0-2.55,0-3.07,0.53
	S6.5,4.4,6.5,6.1v0.4"/>
</svg>
