<svg width="18" height="14" viewBox="0 0 18 14" fill="none" xmlns="http://www.w3.org/2000/svg">
<path d="M0 0.5H18V0.5C16.5955 0.5 15.8933 0.5 15.3889 0.837061C15.1705 0.982978 14.983 1.17048 14.8371 1.38886C14.5 1.89331 14.5 2.59554 14.5 4V9.5C14.5 11.3856 14.5 12.3284 13.9142 12.9142C13.3284 13.5 12.3856 13.5 10.5 13.5H7.5C5.61438 13.5 4.67157 13.5 4.08579 12.9142C3.5 12.3284 3.5 11.3856 3.5 9.5V4C3.5 2.59554 3.5 1.89331 3.16294 1.38886C3.01702 1.17048 2.82952 0.982978 2.61114 0.837061C2.10669 0.5 1.40446 0.5 0 0.5V0.5Z" stroke="#222222" stroke-linecap="round"/>
</svg>
