<?xml version="1.0" encoding="utf-8"?>
<!-- Generator: Adobe Illustrator 27.0.1, SVG Export Plug-In . SVG Version: 6.00 Build 0)  -->
<svg version="1.1" id="Layer_1" xmlns="http://www.w3.org/2000/svg" xmlns:xlink="http://www.w3.org/1999/xlink" x="0px" y="0px"
	 viewBox="0 0 18 14" style="enable-background:new 0 0 18 14;" xml:space="preserve">
<style type="text/css">
	.st0{fill:none;stroke:#222222;stroke-linecap:round;}
</style>
<path class="st0" d="M7.47,9.15V7.31"/>
<path class="st0" d="M10.53,9.15V7.31"/>
<path class="st0" d="M3.48,4.24h11.04l0,0c-0.86,0-1.29,0-1.6,0.21c-0.13,0.09-0.25,0.2-0.34,0.34c-0.21,0.31-0.21,0.74-0.21,1.6
	v3.37c0,1.16,0,1.73-0.36,2.09c-0.36,0.36-0.94,0.36-2.09,0.36H8.08c-1.16,0-1.73,0-2.09-0.36c-0.36-0.36-0.36-0.94-0.36-2.09V6.39
	c0-0.86,0-1.29-0.21-1.6c-0.09-0.13-0.2-0.25-0.34-0.34C4.77,4.24,4.34,4.24,3.48,4.24L3.48,4.24z"/>
<path class="st0" d="M7.47,2.4c0,0,0.31-0.61,1.53-0.61s1.53,0.61,1.53,0.61"/>
</svg>
